<?xml version="1.0" encoding="utf-8"?>
<svg height="50" viewBox="0 0 1293 1024" width="60" xmlns="http://www.w3.org/2000/svg">  
    <path
        fill="#D6EEF6"
        d="M616.142552 1018.503218c-118.522115 6.251242-230.936695-12.753971-336.130013-66.087127-111.911606-56.74619-187.088183-146.257512-230.739098-263.216816-39.573237-105.983704-53.890019-216.098977-47.998044-328.244107 3.179511-61.075355 15.196985-121.252543 55.201343-171.873234 33.627372-42.573115 78.140528-64.86562 130.37792-72.284479 83.781016-11.909694 167.310546-5.568635 251.001745 4.311202 128.653439 15.161059 254.289037 6.933849 376.34993-44.064073 69.607941-29.10061 140.419426-57.44676 215.63193-70.739631 128.581586-22.759551 198.74639 15.484399 231.098365 140.329609 48.501017 187.142073 44.207779 373.817099-43.758695 550.001535-76.344194 152.975801-203.668346 247.409078-366.901214 295.730462-77.206434 22.849368-155.598448 30.447861-234.134169 26.136659" />
    <path
        fill="#00C85C"
        d="M1023.8924 888.197152c-16.238859 26.873156-40.776781 36.321873-71.350386 37.902647-170.23857 8.694256-340.423251 7.239226-510.589967-0.970021-59.368838-2.874134-111.193073-24.430142-145.395272-75.19454-53.225376-78.966841-95.726637-163.610098-120.983093-255.797957-12.017474-43.884439 10.616334-72.697636 56.710264-75.67955 45.626883-2.945988 91.361546-4.454908 137.060282-6.610509 14.280855-10.939674 31.112504-7.562566 47.06395-7.724236 26.172586-0.233523 52.381099-0.987984 78.535721 0.5389 77.062727-0.305377 154.233235-3.808228 231.062438 5.209368 49.237514-0.413157 96.283501 7.329043 137.455476 37.11226 12.664154 9.161303 24.573849 18.897433 33.699225 31.705295 57.06953 79.397961 97.091851 167.238693 128.330099 259.444515 5.676415 16.777759 9.14334 33.699225-1.616701 50.063828" />
    <path
        fill="#FEFEFE"
        d="M893.963564 587.365102c-32.334011-44.728716-78.230344-63.644113-131.222197-68.853481-10.00558-0.987984-20.11894-0.987984-30.178411-1.437067-4.401018-4.544725-3.413035-10.023544-2.766354-15.502363 3.556741-29.998777 3.520815-30.070631-27.250386-30.50175-20.17283-0.305377-40.345661 0.305377-60.536455-0.502974-17.873523-0.718534-26.585743-9.825947-27.10668-27.627616-0.718534-25.669612-0.48501-51.357188-0.32334-77.008838 0.125743-20.550061-8.98167-24.933116-27.80725-20.49617-56.6923 13.328798-92.870466 65.709897-88.271851 128.743255 0.898167 12.358778 7.364969 25.238492-1.832261 37.184114l-127.342115 0.48501c-0.035927-96.247574 0.844277-192.513112-0.736497-288.742723-0.413157-25.328309 8.155356-30.214337 31.435845-30.034704 131.060526 1.0778 262.15698 0.5389 393.253433 0.574827 11.801914 19.112993 7.670346 40.417514 8.155356 60.985539 0.772424 33.304032 1.796334 33.824969 35.800936 35.208145 21.142851 0.844277 43.686842-6.053645 63.033359 8.76611 6.610509 10.76004 6.161426 22.831405 6.197352 34.687209 0.197597 71.422239 0.359267 142.862441-0.143707 214.284679-0.089817 14.137148 2.748391 29.962851-12.358777 39.788798" />
    <path
        fill="#0086C1"
        d="M893.963564 587.365102c5.514745-7.257189 3.592668-15.753849 3.592667-23.765499-0.179633-88.361668-0.520937-176.705373-0.80835-265.049077-5.532709-7.005702-20.047087-7.814053-15.053278-22.005091 65.02729-1.437067 129.946799 1.329287 194.327408 10.00558 45.087983 6.071609 68.673848 32.082525 68.548105 77.960895-0.467047 154.197308-19.112993 305.825858-73.7934 451.149276-10.149287 26.9989-22.238615 54.213359-46.884316 72.535966 2.856171-47.76452-18.951323-88.738898-36.8967-130.4857-25.615722-59.638288-53.153522-118.414335-93.0501-170.34635" />
    <path
        fill="#ADDEEE"
        d="M881.694603 276.545435l15.053278 22.005091c-27.48391-0.143707-54.967819-1.149654-82.397839-0.089817-17.244806 0.682607-22.310468-6.071609-21.663788-22.418247 1.0778-27.43002 0.48501-54.913929 0.592791-82.39784l88.415558 82.900813" />
    <path
        fill="#0092C8"
        d="M496.686343 511.362212c-6.341059-29.567657-11.640244-59.027534-1.688554-89.062239 17.334623-52.291282 54.500773-79.936862 107.564478-89.170018 15.448472-2.694501 19.328554 3.826191 19.077067 17.74778-0.5389 28.382077 1.670591 56.943787-0.718534 85.14623-2.029857 24.340325 7.454786 29.388024 29.280244 27.663543 23.675682-1.850224 47.674704 0.80835 71.386312-0.772424 21.340448-1.40114 25.759429 6.861996 19.436333 25.382199-3.233401 9.448717-5.658452 19.184847-8.442769 28.777271-78.517758-6.574582-157.304966-2.604684-235.912541-5.712342" />
    <path
        fill="#ADDEEE"
        d="M643.842022 376.601237c0-12.789898 1.005947-25.651649-0.197597-38.315803-2.478941-25.921099 12.861751-28.02281 30.537677-21.520081 48.698614 17.90945 80.763175 51.393115 90.553196 103.792176 2.874134 15.358655-2.981914 21.627861-18.951324 21.106925-25.507942-0.86224-51.177555-1.526884-76.59568 0.179633-21.376374 1.437067-27.573726-7.221263-25.579796-26.94501 1.257434-12.664154 0.233523-25.543869 0.233524-38.315803" />
</svg>