<?xml version="1.0" encoding="utf-8"?>
<svg height="48" viewBox="0 0 48 48" width="48" xmlns="http://www.w3.org/2000/svg">

    <path fill="#3ddc84" d="M 20 28 H 28 V 32 H 20 V 28 Z" />
    <path fill="#3ddc84"
        d="M40,16H34.38a12,12,0,0,0-3.64-3.92L34,8.82,31.18,6l-4.34,4.34A12.13,12.13,0,0,0,24,10a11.84,11.84,0,0,0-2.82 0.34 L16.82,6,14,8.82l3.24,3.26A12.12,12.12,0,0,0,13.62,16H8v4h4.18A13.28,13.28,0,0,0,12,22v2H8v4h4v2a13.28,13.28,0,0,0,0.18,2H8v4h5.62a12,12,0,0,0,20.76,0H40V32H35.82A13.28,13.28,0,0,0,36,30V28h4V24H36V22a13.28,13.28,0,0,0-0.18-2H40Zm-8,8v6a8.51,8.51,0,0,1-0.14,1.4l-0.2,1.3L30.92,34a8,8,0,0,1-13.84,0l-0.74-1.28-0.2-1.3A8.54,8.54,0,0,1,16,30V22a8.1,8.1,0,0,1,0.14-1.4l0.2-1.3 0.74 -1.3a8.2,8.2,0,0,1,2.42-2.62l1.14-0.78,1.48-0.36A7.57,7.57,0,0,1,24,14a7.73,7.73,0,0,1,1.9 0.24 l1.36 0.32 ,1.22 0.84 A7.79,7.79,0,0,1,30.9,18l0.76,1.3 0.2 ,1.3A8.07,8.07,0,0,1,32,22Z" />
    <path fill="#3ddc84" d="M 20 20 H 28 V 24 H 20 V 20 Z" />
</svg>