<?xml version="1.0" encoding="utf-8"?>
<svg height="24" viewBox="0 0 1024 1024" width="24" xmlns="http://www.w3.org/2000/svg">
    <path fill="#148C00"
        d="M318.601 479.35L133.288 818.355l161.722-23.377 67.62 148.747 185.318-339.006z" />
    <path fill="#148C00"
        d="M713.397 479.35l185.314 339.005-161.723-23.377-67.62 148.747L484.05 604.719z" />
    <path fill="#DD8E2F"
        d="M515.999 80.614c9.229 0 17.603 18.02 26.634 18.802 9.177 0.792 20.527-15.509 29.459-13.935 9.067 1.584 14.195 20.782 22.976 23.127 8.881 2.366 22.898-11.693 31.439-8.588 8.635 3.137 10.313 22.93 18.572 26.796 8.302 3.877 24.571-7.535 32.461-2.97 7.931 4.586 6.144 24.388 13.616 29.631 7.488 5.252 25.493-3.168 32.481 2.709 7.003 5.878 1.823 25.066 8.29 31.527 6.452 6.462 25.634 1.282 31.522 8.275 5.872 7.004-2.543 24.993 2.709 32.486 5.243 7.483 25.034 5.69 29.626 13.611 4.561 7.9-6.853 24.169-2.976 32.476 3.861 8.244 23.669 9.922 26.801 18.552 3.116 8.546-10.97 22.574-8.582 31.454 2.339 8.775 21.538 13.893 23.122 22.96 1.563 8.942-14.732 20.292-13.94 29.463 0.776 9.036 18.802 17.405 18.802 26.629 0 9.234-18.025 17.614-18.802 26.64-0.792 9.172 15.503 20.521 13.935 29.454-1.578 9.067-20.787 14.194-23.127 22.97-2.377 8.881 11.693 22.909 8.582 31.444-3.132 8.631-22.939 10.318-26.801 18.573-3.866 8.306 7.541 24.575 2.977 32.465-4.587 7.921-24.383 6.139-29.632 13.612-5.247 7.493 3.158 25.492-2.704 32.475-5.878 7.004-25.065 1.824-31.532 8.286-6.462 6.463-1.276 25.649-8.285 31.528-6.988 5.867-24.988-2.533-32.481 2.709-7.468 5.253-5.686 25.045-13.611 29.62-7.9 4.564-24.154-6.837-32.461-2.96-8.254 3.856-9.938 23.659-18.562 26.796-8.541 3.106-22.569-10.964-31.455-8.599-8.771 2.346-13.893 21.543-22.96 23.148-8.932 1.553-20.287-14.748-29.459-13.956-9.031 0.782-17.405 18.802-26.634 18.802s-17.603-18.02-26.634-18.802c-9.176-0.792-20.527 15.509-29.458 13.945-9.067-1.595-14.189-20.792-22.971-23.138-8.875-2.365-22.903 11.705-31.449 8.599-8.625-3.147-10.308-22.939-18.567-26.796-8.301-3.877-24.57 7.524-32.46 2.96-7.932-4.586-6.144-24.378-13.617-29.631-7.488-5.241-25.488 3.169-32.481-2.709-7.004-5.879-1.819-25.055-8.286-31.527-6.457-6.462-25.639-1.283-31.528-8.276-5.868-6.993 2.543-24.992-2.709-32.485-5.242-7.483-25.035-5.701-29.625-13.622-4.56-7.891 6.853-24.159 2.976-32.465-3.856-8.245-23.659-9.934-26.795-18.563-3.111-8.536 10.959-22.564 8.593-31.435-2.345-8.775-21.553-13.913-23.143-22.97-1.558-8.932 14.742-20.282 13.95-29.454-0.782-9.036-18.802-17.405-18.802-26.64 0-9.234 18.02-17.603 18.802-26.639 0.792-9.171-15.508-20.521-13.95-29.463 1.595-9.057 20.798-14.185 23.143-22.961 2.366-8.869-11.704-22.897-8.593-31.443 3.142-8.63 22.939-10.318 26.8-18.563 3.877-8.307-7.535-24.576-2.97-32.465 4.586-7.932 24.383-6.149 29.625-13.611 5.258-7.494-3.158-25.493 2.709-32.486 5.884-7.004 25.066-1.824 31.533-8.286 6.461-6.462 1.277-25.639 8.28-31.527 6.994-5.868 24.993 2.543 32.486-2.71 7.473-5.243 5.69-25.044 13.617-29.62 7.895-4.565 24.154 6.848 32.46 2.97 8.249-3.866 9.937-23.659 18.562-26.806 8.542-3.106 22.57 10.964 31.444 8.598 8.776-2.345 13.898-21.542 22.965-23.137 8.932-1.563 20.287 14.737 29.458 13.945 9.032-0.779 17.407-18.799 26.635-18.799z" />
    <path fill="#FFA70B"
        d="M316.073 209.581c109.875-109.875 288.021-109.875 397.897 0 109.868 109.875 109.868 288.021 0 397.897-109.881 109.875-288.022 109.875-397.897 0-109.869-109.875-109.869-288.01 0-397.897z" />
    <path fill="#973F00"
        d="M449.701 461.477c8.7 5.568 28.886 14.269 50.115 14.269 39.326 0 51.507-25.058 51.159-43.851-0.349-31.67-28.886-45.243-58.468-45.243h-17.053v-22.969h17.053c22.273 0 50.463-11.485 50.463-38.283 0-18.097-11.484-34.106-39.674-34.106-18.097 0-35.499 8.004-45.243 14.965l-8.005-22.273c11.833-8.701 34.802-17.401 59.164-17.401 44.547 0 64.732 26.45 64.732 53.943 0 23.318-13.921 43.155-41.763 53.248v0.696c27.842 5.568 50.463 26.45 50.463 58.12 0 36.194-28.189 67.864-82.481 67.864-25.405 0-47.679-8.004-58.815-15.313l8.353-23.666z" />
    <path fill="#973F00"
        d="M500.164 503.123c-26.778 0-49.208-8.484-60.279-15.75l-1.748-1.147 10.168-28.811 2.834 1.814c7.483 4.79 27.288 13.848 48.677 13.848 16.431 0 29.104-4.423 37.666-13.145 7.075-7.208 11.021-17.409 10.825-27.989-0.346-31.466-30.275-42.624-55.8-42.624h-19.721v-28.305h19.721c19.212 0 47.795-9.485 47.795-35.615 0-19.686-13.834-31.438-37.006-31.438-17.3 0-34.349 7.794-43.692 14.468l-2.869 2.05-9.871-27.465 1.604-1.179c12.131-8.92 35.618-17.92 60.745-17.92 46.56 0 67.4 28.433 67.4 56.611 0 23.305-13.348 42.332-36.9 53.059 27.937 8.28 45.601 30.792 45.601 59.004 0 19.29-7.729 36.866-21.765 49.489-15.308 13.769-37.226 21.045-63.385 21.045z m-55.588-19.107c11.724 7.024 32.82 13.771 55.588 13.771 55.135 0 79.813-32.745 79.813-65.196 0-27.847-18.966-49.633-48.318-55.503l-2.145-0.429v-4.754l1.759-0.638c25.797-9.351 40.004-27.371 40.004-50.739 0-23.654-16.255-51.275-62.064-51.275-22.835 0-44.139 7.729-55.966 15.742l6.157 17.132c10.672-6.846 26.968-13.5 43.893-13.5 31.219 0 42.342 18.996 42.342 36.774 0 26.884-26.729 40.951-53.131 40.951h-14.385v17.633h14.385c27.959 0 60.747 12.54 61.136 47.881 0.222 11.982-4.28 23.583-12.354 31.806-9.604 9.783-23.557 14.743-41.474 14.743-20.282 0-39.252-7.723-48.682-12.982l-6.558 18.583z" />
    <path fill="#973F00"
        d="M515.999 549.877l8.025 16.269 17.953 2.606-12.992 12.663 3.07 17.874-16.056-8.442-16.056 8.442 3.07-17.874-12.992-12.663 17.953-2.606zM435.606 529.407l1.721 16.081 14.231 7.714-14.768 6.607-2.924 15.916-10.854-12.007-16.04 2.136 8.061-14.029-6.983-14.591 15.831 3.326zM596.401 529.407l-1.729 16.081-14.227 7.714 14.769 6.607 2.918 15.916 10.86-12.007 16.045 2.136-8.072-14.029 6.988-14.591-15.832 3.326z" />
</svg>
