<?xml version="1.0" encoding="utf-8"?>
<svg height="24" viewBox="0 0 1024 1024" width="24" xmlns="http://www.w3.org/2000/svg">
    <path fill="#D32A2A"
        d="M315.334 478.652l-189.569 346.79 165.438-23.916 69.17 152.162 189.574-346.791z" />
    <path fill="#D32A2A"
        d="M719.193 478.652l189.57 346.79-165.439-23.916-69.171 152.162L484.58 606.897z" />
    <path fill="#E2B700"
        d="M517.264 70.757c9.442 0 18.008 18.436 27.248 19.231 9.386 0.813 20.993-15.86 30.134-14.252 9.274 1.616 14.521 21.262 23.501 23.656 9.084 2.429 23.423-11.962 32.16-8.781 8.834 3.207 10.554 23.458 18.998 27.407 8.496 3.967 25.134-7.701 33.207-3.034 8.116 4.693 6.283 24.944 13.933 30.303 7.658 5.376 26.076-3.232 33.225 2.775 7.165 6.024 1.866 25.644 8.479 32.256 6.604 6.604 26.224 1.305 32.247 8.47 6.008 7.157-2.602 25.566 2.774 33.233 5.359 7.641 25.61 5.817 30.304 13.924 4.667 8.073-7.01 24.711-3.043 33.207 3.95 8.444 24.209 10.165 27.416 18.989 3.189 8.738-11.219 23.085-8.781 32.169 2.395 8.98 22.031 14.218 23.656 23.492 1.599 9.145-15.074 20.752-14.262 30.139 0.796 9.239 19.231 17.805 19.231 27.243 0 9.438-18.436 18.012-19.231 27.243-0.813 9.387 15.86 20.994 14.253 30.139-1.616 9.274-21.262 14.512-23.656 23.492-2.429 9.084 11.962 23.432 8.781 32.17-3.206 8.824-23.466 10.553-27.416 18.998-3.958 8.496 7.71 25.133 3.043 33.205-4.693 8.107-24.944 6.283-30.312 13.924-5.367 7.668 3.232 26.078-2.766 33.225-6.016 7.166-25.645 1.867-32.257 8.479-6.611 6.613-1.305 26.232-8.479 32.248-7.148 6.008-25.558-2.592-33.225 2.775-7.641 5.367-5.816 25.617-13.924 30.303-8.081 4.666-24.711-7.002-33.207-3.035-8.444 3.941-10.164 24.201-18.989 27.408-8.737 3.18-23.085-11.211-32.174-8.791-8.976 2.404-14.213 22.041-23.487 23.674-9.141 1.6-20.752-15.082-30.139-14.27-9.235 0.795-17.805 19.23-27.243 19.23-9.442 0-18.008-18.436-27.248-19.23-9.386-0.813-20.994 15.861-30.134 14.262-9.274-1.625-14.517-21.262-23.496-23.666-9.079-2.42-23.427 11.971-32.175 8.791-8.82-3.215-10.544-23.467-18.988-27.408-8.492-3.967-25.135 7.701-33.207 3.035-8.111-4.693-6.283-24.945-13.928-30.313-7.662-5.367-26.076 3.232-33.229-2.773-7.166-6.016-1.863-25.637-8.475-32.248-6.608-6.611-26.229-1.314-32.252-8.471-6.003-7.156 2.602-25.566-2.771-33.232-5.363-7.648-25.614-5.826-30.308-13.934-4.662-8.072 7.01-24.709 3.043-33.205-3.945-8.436-24.201-10.164-27.412-18.99-3.18-8.738 11.215-23.086 8.791-32.161-2.398-8.98-22.045-14.227-23.67-23.492-1.599-9.145 15.078-20.752 14.266-30.139-0.795-9.239-19.23-17.805-19.23-27.243 0-9.447 18.436-18.013 19.23-27.252 0.813-9.386-15.864-20.994-14.266-30.139 1.629-9.265 21.271-14.512 23.67-23.492 2.424-9.075-11.971-23.423-8.786-32.169 3.211-8.825 23.466-10.545 27.411-18.989 3.968-8.497-7.705-25.134-3.037-33.207 4.692-8.116 24.943-6.284 30.307-13.924 5.376-7.667-3.229-26.076 2.774-33.233 6.016-7.165 25.64-1.867 32.252-8.479 6.612-6.604 1.31-26.224 8.475-32.248 7.151-5.999 25.562 2.602 33.228-2.766 7.646-5.367 5.822-25.618 13.93-30.311 8.076-4.667 24.71 7.009 33.206 3.042 8.44-3.95 10.165-24.201 18.989-27.416 8.738-3.181 23.086 11.219 32.166 8.79 8.979-2.394 14.217-22.04 23.491-23.665 9.14-1.599 20.753 15.074 30.139 14.261 9.237-0.795 17.806-19.23 27.245-19.23z" />
    <path fill="#FFD31A"
        d="M318.313 202.23c109.875-109.875 288.022-109.875 397.897 0 109.869 109.875 109.869 288.021 0 397.898-109.881 109.875-288.022 109.875-397.897 0-109.87-109.877-109.87-288.011 0-397.898z" />
    <path fill="#B67D1C"
        d="M509.965 294.106h-0.712l-40.229 21.717-6.053-23.854 50.555-27.057h26.701v231.412h-30.262V294.106z" />
    <path fill="#B67D1C"
        d="M542.439 498.537h-34.687V297.431l-40.176 21.688-7.176-28.283 52.57-28.136h29.469v235.837z m-30.262-4.425h25.836V267.125H514.08l-48.539 25.979 4.929 19.424 38.224-20.634h3.483v202.218z" />
    <path fill="#B67D1C"
        d="M517.264 550.796l8.211 16.639 18.362 2.669-13.288 12.948 3.14 18.289-16.425-8.635-16.426 8.635 3.141-18.289-13.289-12.948 18.363-2.669zM435.024 529.854l1.759 16.456 14.56 7.882-15.109 6.76-2.99 16.283-11.102-12.281-16.41 2.186 8.25-14.356-7.147-14.928 16.197 3.407zM599.512 529.854l-1.768 16.456-14.555 7.882 15.108 6.76 2.986 16.283 11.107-12.281 16.413 2.186-8.254-14.356 7.148-14.928-16.197 3.407z" />
</svg>
