<?xml version="1.0" encoding="utf-8"?>
<svg height="24" viewBox="0 0 1024 1024" width="24" xmlns="http://www.w3.org/2000/svg">
    <path
        fill="#ffffff"
        d="M568 362.7H344c-20.6 0-37.3 16.7-37.3 37.3s16.7 37.3 37.3 37.3h224c20.6 0 37.3-16.7 37.3-37.3s-16.7-37.3-37.3-37.3zM680.4 586.7H343.6c-20.4 0-36.9 16.5-36.9 36.9v0.8c0 20.4 16.5 36.9 36.9 36.9h336.8c20.4 0 36.9-16.5 36.9-36.9v-0.8c0-20.4-16.5-36.9-36.9-36.9z" />
    <path
        fill="#ffffff"
        d="M810.7 549.3v336H213.3V138.7h261.3c20.6 0 37.3-16.7 37.3-37.3 0-20.6-16.7-37.3-37.3-37.3H213.3c-41.2 0-74.7 33.4-74.7 74.7v746.7c0 41.2 33.4 74.7 74.7 74.7h597.3c41.2 0 74.7-33.4 74.7-74.7v-336c0-20.6-16.7-37.3-37.3-37.3-20.6-0.2-37.3 16.5-37.3 37.1z" />
    <path
        fill="#ffffff"
        d="M848 176h-74.7v-74.7c0-20.6-16.7-37.3-37.3-37.3s-37.3 16.7-37.3 37.3V176H624c-20.6 0-37.3 16.7-37.3 37.3 0 20.6 16.7 37.3 37.3 37.3h74.7v74.7c0 20.6 16.7 37.3 37.3 37.3s37.3-16.7 37.3-37.3v-74.7H848c20.6 0 37.3-16.7 37.3-37.3 0-20.6-16.7-37.3-37.3-37.3z" />
</svg>