<?xml version="1.0" encoding="utf-8"?>
<svg height="24" viewBox="0 0 1024 1024" width="24" xmlns="http://www.w3.org/2000/svg">
    <path
        fill="#000000"
        d="M758.4 428.8c0-14.4-14.4-27.2-27.2-27.2H238.4c-14.4 0-27.2 14.4-27.2 27.2s14.4 27.2 27.2 27.2h491.2c14.4 1.6 28.8-12.8 28.8-27.2zM400 566.4h-155.2c-16 0-30.4 11.2-30.4 27.2 0 14.4 14.4 27.2 30.4 27.2H400c16 0 30.4-14.4 30.4-27.2 0-16-14.4-27.2-30.4-27.2z m0 166.4h-155.2c-16 0-30.4 11.2-30.4 27.2 0 14.4 14.4 27.2 30.4 27.2H400c16 0 30.4-14.4 30.4-27.2 0-16-14.4-27.2-30.4-27.2z m329.6-496H238.4c-14.4 0-27.2 14.4-27.2 27.2 0 14.4 14.4 27.2 27.2 27.2h491.2c14.4 0 27.2-14.4 27.2-27.2 1.6-14.4-12.8-27.2-27.2-27.2zM484.8 953.6H102.4V70.4h764.8v412.8c0 16 11.2 27.2 27.2 27.2s27.2-11.2 27.2-27.2V43.2c0-14.4-14.4-27.2-27.2-27.2H75.2C62.4 16 48 30.4 48 43.2v937.6c0 12.8 14.4 27.2 27.2 27.2h409.6c16 0 27.2-11.2 27.2-27.2s-11.2-27.2-27.2-27.2z m273.6-387.2c-120 0-217.6 99.2-217.6 220.8S636.8 1008 758.4 1008 976 908.8 976 787.2s-97.6-220.8-217.6-220.8z m0 387.2c-89.6 0-163.2-73.6-163.2-164.8S668.8 624 758.4 624s163.2 73.6 163.2 164.8S848 953.6 758.4 953.6z m81.6-193.6h-54.4v-54.4c0-14.4-14.4-27.2-27.2-27.2-14.4 0-27.2 14.4-27.2 27.2v83.2c0 14.4 14.4 27.2 27.2 27.2h81.6c14.4 0 27.2-14.4 27.2-27.2 0-14.4-14.4-28.8-27.2-28.8z" />
</svg>