<?xml version="1.0" encoding="utf-8"?>
<svg height="24" viewBox="0 0 1024 1024" width="24" xmlns="http://www.w3.org/2000/svg">
    <path
        fill="#000000"
        d="M486.4 630.4c-19.2 19.2-48 19.2-67.2 3.2l-137.6-131.2-32 35.2 137.6 131.2c38.4 35.2 96 35.2 134.4-3.2l281.6-297.6-35.2-32L486.4 630.4zM512 51.2c-252.8 0-460.8 204.8-460.8 460.8s204.8 460.8 460.8 460.8 460.8-204.8 460.8-460.8S764.8 51.2 512 51.2zM512 924.8c-227.2 0-412.8-185.6-412.8-412.8s185.6-412.8 412.8-412.8 412.8 185.6 412.8 412.8S739.2 924.8 512 924.8z" />
</svg>