<?xml version="1.0" encoding="utf-8"?>
<svg height="16" viewBox="0 0 1024 1024" width="16" xmlns="http://www.w3.org/2000/svg">
    <path
        fill="#9B9B9B"
        d="M932 421.645c0-78.955-219.877-84.001-249.3-118.485C653.332 268.729 572.684 92 512 92c-60.683 0-141.12 176.098-170.49 210.109C312.088 336.172 92 342.269 92 421.645c0 61.766 95.359 149.604 137.548 202.118 93.162-147.425 255.128-237.034 429.457-237.6-210 0-350.91 202.118-417.478 325.86-12.82 69.125-34.676 176.255-13.03 196.862C306.256 982.688 474.855 856.16 512 856.16c37.145 0 205.797 126.055 283.503 52.725 29.159-27.703-21.016-215.155-21.016-250.428C774.487 623.133 932 500.653 932 421.645z" />
</svg>
