<?xml version="1.0" encoding="utf-8"?>
<svg height="24" viewBox="0 0 1024 1024" width="24" xmlns="http://www.w3.org/2000/svg">
    <path fill="#1A64AD"
        d="M311.026 476.17L122.985 820.166l164.103-23.727 68.615 150.943 188.05-343.999z" />
    <path fill="#1A64AD"
        d="M711.632 476.17l188.047 343.996-164.115-23.727-68.604 150.943-188.049-343.999z" />
    <path fill="#C6C6C6"
        d="M511.33 71.562c9.367 0 17.86 18.288 27.029 19.079 9.307 0.804 20.823-15.734 29.887-14.143 9.201 1.607 14.415 21.088 23.319 23.47 9.011 2.403 23.235-11.871 31.896-8.717 8.768 3.186 10.47 23.274 18.846 27.188 8.429 3.934 24.938-7.641 32.943-3.009 8.049 4.653 6.229 24.742 13.813 30.062 7.604 5.335 25.879-3.208 32.964 2.755 7.107 5.97 1.852 25.432 8.408 31.989 6.546 6.557 26.016 1.301 31.991 8.402 5.954 7.102-2.58 25.361 2.75 32.967 5.319 7.583 25.402 5.769 30.066 13.812 4.622 8.011-6.959 24.517-3.024 32.943 3.924 8.373 24.018 10.079 27.19 18.833 3.173 8.672-11.126 22.902-8.704 31.912 2.369 8.908 21.85 14.105 23.468 23.301 1.586 9.074-14.954 20.585-14.15 29.897 0.782 9.167 19.067 17.661 19.067 27.023s-18.285 17.87-19.067 27.023c-0.804 9.312 15.736 20.827 14.14 29.898-1.607 9.198-21.088 14.396-23.468 23.303-2.411 9.008 11.866 23.243 8.704 31.91-3.173 8.754-23.277 10.467-27.19 18.846-3.924 8.426 7.646 24.93 3.015 32.938-4.653 8.043-24.737 6.231-30.057 13.812-5.33 7.604 3.204 25.866-2.75 32.957-5.965 7.106-25.435 1.854-31.991 8.41-6.567 6.56-1.301 26.021-8.418 31.989-7.086 5.959-25.351-2.573-32.954 2.752-7.583 5.325-5.774 25.411-13.813 30.056-8.016 4.633-24.514-6.942-32.943-3.006-8.375 3.908-10.078 24.005-18.835 27.183-8.661 3.162-22.896-11.115-31.917-8.715-8.905 2.38-14.098 21.86-23.299 23.483-9.063 1.581-20.58-14.959-29.887-14.155-9.169 0.788-17.662 19.073-27.029 19.073-9.365 0-17.862-18.285-27.026-19.073-9.312-0.804-20.829 15.731-29.897 14.15-9.196-1.618-14.394-21.099-23.304-23.479-9.005-2.4-23.235 11.877-31.912 8.715-8.751-3.184-10.459-23.274-18.841-27.183-8.423-3.937-24.927 7.639-32.938 3.006-8.048-4.652-6.229-24.741-13.817-30.063-7.599-5.325-25.863 3.207-32.959-2.753-7.107-5.967-1.851-25.429-8.408-31.988-6.557-6.557-26.016-1.304-31.992-8.402-5.954-7.097 2.581-25.36-2.744-32.965-5.32-7.588-25.414-5.779-30.067-13.822-4.627-8.009 6.954-24.512 3.014-32.938-3.908-8.369-24.002-10.082-27.185-18.836-3.157-8.669 11.125-22.902 8.72-31.902-2.379-8.907-21.871-14.116-23.478-23.303-1.586-9.071 14.954-20.586 14.15-29.898-0.793-9.167-19.079-17.661-19.079-27.023 0-9.37 18.285-17.865 19.079-27.032 0.804-9.312-15.737-20.823-14.15-29.897 1.618-9.188 21.099-14.394 23.478-23.303 2.406-9-11.876-23.235-8.72-31.907 3.188-8.754 23.277-10.464 27.19-18.835 3.939-8.426-7.641-24.938-3.009-32.943 4.653-8.045 24.742-6.234 30.062-13.814 5.331-7.604-3.204-25.865 2.755-32.959 5.964-7.107 25.429-1.854 31.991-8.411 6.552-6.554 1.295-26.016 8.402-31.989 7.097-5.954 25.361 2.581 32.965-2.747 7.583-5.325 5.774-25.414 13.812-30.064 8.017-4.629 24.515 6.948 32.943 3.014 8.371-3.913 10.084-24.007 18.835-27.19 8.672-3.154 22.902 11.123 31.907 8.72 8.905-2.382 14.103-21.863 23.298-23.48 9.068-1.586 20.585 14.957 29.903 14.153 9.16-0.792 17.663-19.08 27.022-19.08z" />
    <path fill="#DDDDDD"
        d="M312.38 204.275c109.875-109.875 288.022-109.875 397.897 0 109.869 109.875 109.869 288.021 0 397.898-109.881 109.875-288.022 109.875-397.897 0-109.869-109.877-109.869-288.011 0-397.898z" />
    <path fill="#7F7F7F"
        d="M436.646 493.701v-19.07l24.367-23.661c58.623-55.798 85.109-85.462 85.463-120.071 0-23.308-11.301-44.85-45.557-44.85-20.836 0-38.14 10.594-48.735 19.423l-9.888-21.896c15.892-13.419 38.493-23.308 64.979-23.308 49.441 0 70.276 33.902 70.276 66.745 0 42.378-30.724 76.633-79.105 123.249l-18.364 16.951v0.707h103.119v25.78H436.646z" />
    <path fill="#7F7F7F"
        d="M585.91 496.409H433.939v-22.923l25.188-24.458c59.422-56.558 84.308-85.469 84.642-118.156 0-15.711-5.567-42.115-42.85-42.115-21.271 0-38.578 11.776-47.001 18.796l-2.735 2.279-12.195-27.004 1.563-1.319c18.287-15.442 41.984-23.947 66.726-23.947 50.417 0 72.983 34.882 72.983 69.453 0 44.726-33.13 80.103-79.934 125.199l-14.083 13h99.667v31.195z m-146.556-5.415h141.142v-20.365h-103.12v-4.6l19.235-17.755c45.791-44.121 78.234-78.671 78.234-121.26 0-29.541-17.696-64.038-67.569-64.038-22.76 0-44.573 7.575-61.661 21.371l7.597 16.823c11.068-8.599 27.627-17.829 47.707-17.829 30.673 0 48.264 17.334 48.264 47.558-0.37 36.308-27.918 66.46-86.303 122.032l-23.526 22.845v15.218z" />
    <path fill="#7F7F7F"
        d="M511.33 547.735l8.149 16.504 18.214 2.65-13.188 12.843 3.12 18.141-16.295-8.564-16.291 8.564 3.114-18.141-13.177-12.843 18.211-2.65zM429.754 526.96l1.74 16.323 14.446 7.821-14.985 6.708-2.972 16.149-11.009-12.181-16.276 2.168 8.18-14.24-7.091-14.809 16.07 3.382zM592.919 526.96l-1.755 16.323-14.436 7.821 14.986 6.708 2.961 16.149 11.01-12.181 16.286 2.168-8.186-14.24 7.086-14.809-16.064 3.382z" />
</svg>
