<?xml version="1.0" encoding="utf-8"?>
<svg height="24" viewBox="0 0 1024 1024" width="24" xmlns="http://www.w3.org/2000/svg">
    <path d="M699.501968 778.859249c-127.17636 0-192.939589-43.756856-192.939589-62.372712V632.555257c44.012744 23.925533 108.560505 39.918536 192.939589 39.918536 84.443056 0 148.734928-15.993003 193.003561-39.918536V716.486537c0 18.551884-65.827201 62.372712-193.003561 62.372712m0 175.79509c-127.17636 0-192.939589-43.756856-192.939589-62.372712v-83.93128c44.012744 23.925533 108.560505 39.918536 192.939589 39.918535 84.443056 0 148.734928-15.993003 193.003561-39.918535v83.93128c0 18.551884-65.827201 62.372712-193.003561 62.372712m0-476.143687c127.17636 0 193.003561 43.756856 193.003561 62.372712 0 18.679828-65.571313 62.436684-193.003561 62.436683s-192.939589-43.756856-192.939589-62.436683c0-18.807772 65.763229-62.372712 192.939589-62.372712m0-69.409634c-172.148685 0-262.093334 66.275005-262.093334 131.590429v351.334292c0 65.251452 90.200537 131.526457 262.093334 131.526457 170.933217 0 260.68595-65.251452 262.093334-130.119073V540.691447c0-65.251452-89.944649-131.590429-262.093334-131.590429m-310.712064-339.691385c197.801462 0 319.412257 67.682389 319.412258 116.301119S586.591366 301.947898 388.789904 301.947898c-197.801462 0-319.412257-67.682389-319.412257-116.301118s121.610795-116.301118 319.412257-116.301119m0 301.755982c119.947523 0 244.501031-26.356469 319.412258-76.638471v91.416006h69.409633V185.454863C777.611795 65.059536 577.379397 0 389.045792 0 200.648216 0 0.223902 65.251452 0.223902 185.710752v546.960704c0 120.395327 200.232398 185.454863 388.566002 185.454864v-69.153746c-197.801462 0-319.412257-67.682389-319.412257-116.301118v-164.408071c74.975198 50.026114 199.464734 76.638471 319.412257 76.63847V575.492222c-197.801462 0-319.412257-67.682389-319.412257-116.301118v-164.408072c74.975198 50.026114 199.464734 76.382583 319.412257 76.382583"
        fill="#FCC916" />
</svg>