<?xml version="1.0" encoding="utf-8"?>
<svg height="24" viewBox="0 0 1024 1024" width="24" xmlns="http://www.w3.org/2000/svg">
    <path fill="#000000"
        d="M588.8 851.2c-14.4-46.4-14.4-92.8 0-137.6 19.2-59.2 54.4-104 108.8-132.8 81.6-41.6 160-32 235.2 19.2V592 147.2c0-11.2-3.2-24-4.8-35.2-8-28.8-24-51.2-46.4-68.8-22.4-17.6-48-27.2-76.8-27.2H204.8c-12.8 0-27.2 0-40 1.6-16 0-30.4 6.4-44.8 12.8-17.6 9.6-32 20.8-44.8 36.8-16 24-27.2 49.6-27.2 80v724.8c0 4.8 0 9.6 1.6 14.4 1.6 20.8 8 38.4 17.6 56 12.8 22.4 32 40 56 51.2 19.2 9.6 41.6 14.4 62.4 14.4h609.6c-46.4-1.6-89.6-16-128-44.8-38.4-28.8-64-65.6-78.4-112zM206.4 230.4c3.2-6.4 9.6-11.2 17.6-11.2h529.6c12.8 0 20.8 9.6 22.4 19.2 1.6 11.2-6.4 24-19.2 24-4.8 0-8 1.6-12.8 1.6H228.8c-9.6 0-19.2-1.6-24-11.2-3.2-8-3.2-14.4 1.6-22.4z m12.8 169.6c3.2 0 4.8-1.6 8-1.6h526.4c14.4 0 24 9.6 24 22.4 0 12.8-9.6 22.4-22.4 22.4H224c-12.8 0-19.2-9.6-20.8-20.8-1.6-9.6 6.4-20.8 16-22.4z m225.6 404.8H225.6c-12.8 0-22.4-9.6-22.4-22.4 0-12.8 9.6-22.4 22.4-22.4h219.2c11.2 0 22.4 9.6 22.4 22.4 0 11.2-9.6 22.4-22.4 22.4zM489.6 624H224c-12.8 0-22.4-11.2-22.4-22.4 0-12.8 9.6-22.4 22.4-22.4h264c14.4 0 22.4 9.6 22.4 22.4 1.6 12.8-8 22.4-20.8 22.4z" />
    <path fill="#000000"
        d="M976 782.4c0-100.8-78.4-177.6-169.6-180.8-105.6-3.2-180.8 81.6-184 172.8-3.2 107.2 80 184 169.6 187.2C896 964.8 976 880 976 782.4z m-83.2 43.2H798.4c-12.8 0-20.8-9.6-20.8-22.4v-134.4c0-12.8 8-22.4 20.8-22.4s22.4 8 22.4 22.4v112H886.4c11.2 0 20.8 8 22.4 17.6 3.2 12.8-4.8 24-16 27.2z" />
</svg>