<?xml version="1.0" encoding="utf-8"?>
<svg height="50" viewBox="0 0 1166 1024" width="60" xmlns="http://www.w3.org/2000/svg">  
    <path
        fill="#00C85C"
        d="M973.990698 1002.567442c-2.381395 0-2.381395 0 0 0-23.813953 0-45.246512-14.288372-54.772093-35.72093l-64.297675-142.883721c-14.288372-30.95814 0-64.297674 30.95814-78.586047 7.144186-2.381395 14.288372-4.762791 23.813953-4.762791H976.372093c33.339535 0 59.534884 26.195349 59.534884 59.534884l-2.381396 145.265116c-2.381395 30.95814-28.576744 57.153488-59.534883 57.153489z m-47.627907-190.511628l35.72093 76.204651v-76.204651h-35.72093zM221.469767 907.311628c-16.669767 0-30.95814-7.144186-40.48372-16.669768-11.906977-11.906977-16.669767-26.195349-19.051163-42.865116l-2.381396-145.265116v-2.381395c0-30.95814 26.195349-57.153488 59.534884-57.153489H285.767442c9.525581 0 16.669767 2.381395 23.813953 4.762791 30.95814 14.288372 42.865116 50.009302 30.95814 78.586046l-64.297675 142.883721c-11.906977 23.813953-30.95814 38.102326-54.772093 38.102326z m9.525582-190.511628v76.204651l35.72093-76.204651H230.995349z" />
    <path
        fill="#FFFFFF"
        d="M654.883721 190.511628h119.069767c190.511628 0 345.302326 154.790698 345.302326 345.302325S964.465116 881.116279 773.953488 881.116279h-119.069767c-190.511628 0-345.302326-154.790698-345.302326-345.302326S464.372093 190.511628 654.883721 190.511628z" />
    <path
        fill="#00C85C"
        d="M773.953488 916.837209h-119.069767c-209.562791 0-381.023256-171.460465-381.023256-381.023256s171.460465-381.023256 381.023256-381.023255h119.069767c209.562791 0 381.023256 171.460465 381.023256 381.023255s-171.460465 381.023256-381.023256 381.023256z m-119.069767-690.604651c-171.460465 0-309.581395 138.12093-309.581395 309.581395s138.12093 309.581395 309.581395 309.581396h119.069767c171.460465 0 309.581395-138.12093 309.581396-309.581396s-138.12093-309.581395-309.581396-309.581395h-119.069767z" />
    <path
        fill="#FFFFFF"
        d="M392.930233 47.627907h119.069767C702.511628 47.627907 857.302326 202.418605 857.302326 392.930233S702.511628 738.232558 512 738.232558h-119.069767C202.418605 738.232558 47.627907 583.44186 47.627907 392.930233S202.418605 47.627907 392.930233 47.627907z" />
    <path
        fill="#00C85C"
        d="M512 773.953488h-119.069767c-209.562791 0-381.023256-171.460465-381.023256-381.023255s171.460465-381.023256 381.023256-381.023256h119.069767c209.562791 0 381.023256 171.460465 381.023256 381.023256s-171.460465 381.023256-381.023256 381.023255z m-119.069767-690.604651c-171.460465 0-309.581395 138.12093-309.581396 309.581396s138.12093 309.581395 309.581396 309.581395h119.069767c171.460465 0 309.581395-138.12093 309.581395-309.581395s-138.12093-309.581395-309.581395-309.581396h-119.069767z" />
    <path
        fill="#FFFFFF"
        d="M978.753488 738.232558H833.488372c4.762791 30.95814 9.525581 47.627907 16.669768 54.772093 4.762791 4.762791 42.865116 38.102326 114.306976 97.637209l14.288372-152.409302z" />
    <path
        fill="#ADDEEE"
        d="M309.581395 381.023256m-71.44186 0a71.44186 71.44186 0 1 0 142.883721 0 71.44186 71.44186 0 1 0-142.883721 0Z" />
    <path
        fill="#ADDEEE"
        d="M571.534884 381.023256m-71.441861 0a71.44186 71.44186 0 1 0 142.883721 0 71.44186 71.44186 0 1 0-142.883721 0Z" />
</svg>